<svg xmlns="http://www.w3.org/2000/svg" xmlns:xlink="http://www.w3.org/1999/xlink" width="189.692" height="160.324" viewBox="0 0 189.692 160.324">
  <defs>
    <linearGradient id="linear-gradient" x1="0.5" x2="0.5" y2="1" gradientUnits="objectBoundingBox">
      <stop offset="0.426" stop-color="#664072"/>
      <stop offset="0.431" stop-color="#674272"/>
      <stop offset="0.533" stop-color="#7c6671"/>
      <stop offset="0.632" stop-color="#908567"/>
      <stop offset="0.728" stop-color="#a19c57"/>
      <stop offset="0.819" stop-color="#aead45"/>
      <stop offset="0.903" stop-color="#b6b837"/>
      <stop offset="0.975" stop-color="#b9bc31"/>
    </linearGradient>
  </defs>
  <g id="logo" transform="translate(-5.154 -12.923)">
    <path id="Path_2" data-name="Path 2" d="M178.372,280.061H137.53a36.489,36.489,0,0,1,8.229,7.768,33.943,33.943,0,0,1,7.273,20.586h25.337a14.179,14.179,0,0,0,0-28.354Zm-66.795,25.6a29.2,29.2,0,0,0-3.068-12.579,24.4,24.4,0,0,0-4-6.2c-.9-.877-1.677-1.889-2.629-2.718a38.85,38.85,0,0,0-5.94-4.141H75.492a13.763,13.763,0,0,0-9.855,4.157,14.208,14.208,0,0,0-4.087,10.024,14.061,14.061,0,0,0,13.942,14.173h36.054v-.167c0-.606.043-1.216.067-1.813C111.6,306.155,111.6,305.92,111.578,305.665ZM207.655,285.5l-6.015-3.368a1.7,1.7,0,0,0-2.273.59,1.577,1.577,0,0,0,.615,2.192L206,288.279a1.7,1.7,0,0,0,2.265-.59A1.573,1.573,0,0,0,207.655,285.5Zm17.653-9.247a1.684,1.684,0,0,0-2.265.582l-3.476,5.831a1.576,1.576,0,0,0,.615,2.192,1.684,1.684,0,0,0,2.265-.582l3.476-5.831A1.579,1.579,0,0,0,225.308,276.251Zm6.865,6.772a1.683,1.683,0,0,0-2.265-.582l-6.015,3.356a1.582,1.582,0,0,0-.615,2.192,1.688,1.688,0,0,0,2.273.59l6.015-3.356A1.586,1.586,0,0,0,232.173,283.022Zm-20.063-.538-3.468-5.831a1.693,1.693,0,0,0-2.273-.582,1.584,1.584,0,0,0-.607,2.192l3.476,5.819a1.683,1.683,0,0,0,2.265.59A1.565,1.565,0,0,0,212.111,282.484Zm3.758-8.784a1.627,1.627,0,0,0-1.658,1.6v6.732a1.658,1.658,0,0,0,3.315,0V275.3A1.632,1.632,0,0,0,215.868,273.7Zm-.372,26.743a1.632,1.632,0,0,0-1.658,1.6v6.732a1.663,1.663,0,0,0,3.323,0v-6.732A1.634,1.634,0,0,0,215.5,300.443Zm-7.418-4.352a1.685,1.685,0,0,0-2.265-.59l-6.023,3.368a1.584,1.584,0,0,0-.607,2.192,1.7,1.7,0,0,0,2.273.59l6.015-3.368A1.578,1.578,0,0,0,208.078,296.091Zm-2.727-5.839H198.4a1.607,1.607,0,1,0,0,3.212h6.951a1.607,1.607,0,1,0,0-3.212ZM225.6,305.82,222.13,300a1.7,1.7,0,0,0-2.273-.59,1.585,1.585,0,0,0-.607,2.192l3.476,5.831a1.691,1.691,0,0,0,2.265.59A1.593,1.593,0,0,0,225.6,305.82Zm-14.408-6.592a1.7,1.7,0,0,0-2.273.59l-3.468,5.819a1.564,1.564,0,0,0,.607,2.192,1.684,1.684,0,0,0,2.265-.582l3.476-5.831A1.583,1.583,0,0,0,211.19,299.228Zm20.2-.056-6.023-3.356a1.684,1.684,0,0,0-2.265.582,1.59,1.59,0,0,0,.607,2.2l6.015,3.356a1.69,1.69,0,0,0,2.273-.582A1.592,1.592,0,0,0,231.386,299.172Zm1.575-8.557H226.01a1.607,1.607,0,1,0,0,3.212h6.951a1.607,1.607,0,1,0,0-3.212ZM145.61,391.51c-.306,9.255-9.083,17.034-18.205,13.675-6.156-2.268-9.487-8.9-9.487-15.293-.024-8.43-.016-74.347-.016-82.765,0-.606.043-1.216.067-1.813-.008-.251-.016-.49-.031-.733a29.488,29.488,0,0,0-3.068-12.587,24.531,24.531,0,0,0-4.013-6.2c-.886-.877-1.665-1.881-2.621-2.706a38.191,38.191,0,0,0-6.078-4.225,5.058,5.058,0,0,1,.466-.311c.266-.135.529-.263.8-.371a30.875,30.875,0,0,1,7.132-1.949,29.047,29.047,0,0,1,4.447-.331,32.817,32.817,0,0,1,4.479.319c.016,0,.031.008.051.008a29.942,29.942,0,0,1,20.145,11.5,27.8,27.8,0,0,1,5.98,16.855q.024.395.024.8C145.684,314.927,145.923,381.977,145.61,391.51Zm103.633-3.2c0,9.55-10.717,18.86-19.773,13.4a4.463,4.463,0,0,1-1.991-1.283,14.273,14.273,0,0,1-5.862-10.948,2.993,2.993,0,0,1-.157-1.427q-.012-12.453-.008-24.906c0-9.649-1.587-20.621,2.5-29.589a7.6,7.6,0,0,1,1.164-1.877l.059-.024a11.894,11.894,0,0,1,10.086-5.771,11.189,11.189,0,0,1,9.4,4.157c3.1,3.655,4.2,8.075,4.471,12.822l.074,44.392C249.234,387.6,249.242,387.951,249.242,388.306Zm-51.979-72.482a38.187,38.187,0,0,0-6.078,4.225c-.952.825-1.732,1.829-2.629,2.718a24.247,24.247,0,0,0-4,6.194,30,30,0,0,0-3.092,13.32c.016.6.059,1.208.059,1.813,0,8.418.008,34.551-.008,42.981-.02,9.813-9.212,19.561-19.134,15-.1-.044-.165-.151-.247-.227a14.492,14.492,0,0,1-8.311-13.16c-.325-9.534-.074-36.8-.074-46.341a28.062,28.062,0,0,1,6-17.656,30.038,30.038,0,0,1,20.2-11.506A30.729,30.729,0,0,1,196,315.142c.274.112.541.243.8.379A3.72,3.72,0,0,1,197.263,315.824Zm40.976,5.1c-.521,0-1.011.024-1.493-.008a18.5,18.5,0,0,0-11.462,2.842c-8.719,5.743-9.777,15.5-9.82,25.109-.043,9.589,0,19.183,0,28.772q0,5.153,0,10.307a9.458,9.458,0,0,1-.149,1.188c-1.144,9.1-12.175,19.262-20.858,11.754a9.2,9.2,0,0,1-3.527-3.416,13.891,13.891,0,0,1-2.794-5.779,19.589,19.589,0,0,1-.415-2.583c-.031-.522-.082-1.044-.082-1.57-.008-9.163-.008-36.038,0-45.209,0-.642.074-1.283.118-1.925a21.057,21.057,0,0,1,1.038-5.847,25.009,25.009,0,0,1,5.251-10.335c7.441-8.772,16.736-12.08,27.386-11.16a26.443,26.443,0,0,1,16.215,7.063A1.605,1.605,0,0,1,238.239,320.925Z" transform="translate(-55.396 -259.777)" stroke="#fff" stroke-width="2" fill="url(#linear-gradient)"/>
    <path id="Path_1" data-name="Path 1" d="M214.892,612.27a7.141,7.141,0,0,1,5.581,2.7,10.165,10.165,0,0,1-.018,12.966,7.379,7.379,0,0,1-11.381-.009,10.106,10.106,0,0,1,.018-12.989A7.471,7.471,0,0,1,214.892,612.27Zm-.137,5.144a3.015,3.015,0,0,0-2.39,1.179,4.57,4.57,0,0,0,0,5.682,3.019,3.019,0,0,0,4.78.009,4.615,4.615,0,0,0,0-5.7A3.013,3.013,0,0,0,214.755,617.414Zm24.893,12.761h-4.193v-7.207c0-.733-.264-1.1-.8-1.1s-.783.369-.783,1.1v7.207h-4.193V623.06a6.3,6.3,0,0,1,1.448-4.207,4.474,4.474,0,0,1,3.542-1.707,4.531,4.531,0,0,1,3.847,1.985,7.188,7.188,0,0,1,1.134,4.311v6.733Zm25.271-12.456v12.456h-4.553V617.719H256.88V612.7H268.4v5.017Zm14.09-5.017v5.336a3.354,3.354,0,0,1,2.131-.883,2.983,2.983,0,0,1,2.563,1.329,6.081,6.081,0,0,1,.947,3.6v8.09h-4.193v-6.747a2.684,2.684,0,0,0-.15-1.1.606.606,0,0,0-.587-.282c-.473,0-.706.4-.706,1.188v6.938h-4.193V612.693h4.188Zm24.133,11.869h-6.36a4.066,4.066,0,0,1-.146-1.011,4.025,4.025,0,0,1,.2-1.252h2.131c-.15-.947-.615-1.42-1.4-1.42a1.479,1.479,0,0,0-1.279.76,3.54,3.54,0,0,0-.492,1.953,3.744,3.744,0,0,0,.478,2.008,1.424,1.424,0,0,0,1.252.769,1.6,1.6,0,0,0,1.211-.715l2.39,3.278a5.445,5.445,0,0,1-3.71,1.5,5.377,5.377,0,0,1-4.184-1.908,7.415,7.415,0,0,1,.018-9.456,5.4,5.4,0,0,1,4.2-1.935,5.217,5.217,0,0,1,4.088,1.889,6.808,6.808,0,0,1,1.653,4.653C303.189,623.861,303.171,624.161,303.143,624.571Zm25.927-3.638v4.685h-3.792v4.557h-4.553v-10.84a7.688,7.688,0,0,1,1.653-5.062,5.181,5.181,0,0,1,4.166-2,5.471,5.471,0,0,1,4.63,2.727l-3.733,3.109c-.209-.665-.578-1-1.111-1-.7,0-1.056.555-1.056,1.662v2.162Zm11.964-8.231v17.473h-4.193V612.7Zm8.955,23.068v-4.161a3.543,3.543,0,0,0,1.493.41q2.042,0,2.645-2.622a3.841,3.841,0,0,1-2.153.742,3.1,3.1,0,0,1-2.568-1.325,5.4,5.4,0,0,1-1.011-3.373v-8.026h4.193v6.861c0,.76.278,1.138.829,1.138.533,0,.8-.419.8-1.256V617.41h4.193V628.8a7.973,7.973,0,0,1-1.571,5.144,5.567,5.567,0,0,1-6.847,1.826Z" transform="translate(-164.847 -463.028)" fill="#fff"/>
  </g>
</svg>
