<svg xmlns="http://www.w3.org/2000/svg" xmlns:xlink="http://www.w3.org/1999/xlink" width="500" height="500" viewBox="0 0 500 500">
  <defs>
    <linearGradient id="linear-gradient" x1="0.5" x2="0.5" y2="1" gradientUnits="objectBoundingBox">
      <stop offset="0.426" stop-color="#4e3060"/>
      <stop offset="0.445" stop-color="#54375c"/>
      <stop offset="0.563" stop-color="#766145"/>
      <stop offset="0.678" stop-color="#918233"/>
      <stop offset="0.787" stop-color="#a59a27"/>
      <stop offset="0.889" stop-color="#b0a91f"/>
      <stop offset="0.975" stop-color="#b5ae1d"/>
    </linearGradient>
    <clipPath id="clip-Custom_Size_1">
      <rect width="500" height="500"/>
    </clipPath>
  </defs>
  <g id="Custom_Size_1" data-name="Custom Size – 1" clip-path="url(#clip-Custom_Size_1)">
    <g id="Group_1" data-name="Group 1" transform="translate(-50.549 -218.705)">
      <path id="Path_1" data-name="Path 1" d="M224.667,612.268a15.661,15.661,0,0,1,12.256,5.932,22.327,22.327,0,0,1-.037,28.48,16.213,16.213,0,0,1-25.005-.029,22.2,22.2,0,0,1,.037-28.535A16.435,16.435,0,0,1,224.667,612.268Zm-.3,11.3a6.623,6.623,0,0,0-5.247,2.586,10.047,10.047,0,0,0,.012,12.483,6.626,6.626,0,0,0,10.495.014,10.152,10.152,0,0,0,0-12.51A6.622,6.622,0,0,0,224.371,623.57ZM279.05,651.6h-9.214V635.771q0-2.418-1.749-2.417-1.724,0-1.724,2.417V651.6H257.15V635.968a13.8,13.8,0,0,1,3.178-9.236,9.827,9.827,0,0,1,7.784-3.753,9.959,9.959,0,0,1,8.45,4.358q2.488,3.4,2.488,9.475Zm55.507-27.356V651.6h-10V624.244h-7.662v-11.02h25.3v11.02Zm30.955-11.02v11.723a7.351,7.351,0,0,1,4.681-1.939,6.562,6.562,0,0,1,5.63,2.924,13.38,13.38,0,0,1,2.081,7.9V651.6h-9.213V636.783a5.834,5.834,0,0,0-.333-2.418,1.334,1.334,0,0,0-1.293-.618q-1.553,0-1.553,2.614V651.6H356.3V613.224Zm53.005,26.062H404.548a8.354,8.354,0,0,1,.123-4.976h4.681q-.492-3.121-3.079-3.122a3.246,3.246,0,0,0-2.809,1.673,7.759,7.759,0,0,0-1.084,4.288,8.276,8.276,0,0,0,1.047,4.414,3.136,3.136,0,0,0,2.747,1.687,3.534,3.534,0,0,0,2.661-1.574l5.247,7.2a11.934,11.934,0,0,1-8.154,3.29,11.8,11.8,0,0,1-9.189-4.189,16.3,16.3,0,0,1,.037-20.777A11.854,11.854,0,0,1,406,622.951a11.473,11.473,0,0,1,8.98,4.148,14.955,14.955,0,0,1,3.634,10.218Q418.616,637.936,418.517,639.286Zm56.958-7.985v10.29H467.15V651.6h-10V627.787a16.879,16.879,0,0,1,3.634-11.119,11.374,11.374,0,0,1,9.151-4.4q6.085,0,10.175,5.988l-8.2,6.832q-.69-2.193-2.439-2.192-2.316,0-2.315,3.654V631.3Zm26.275-18.077V651.6h-9.213V613.224Zm19.674,50.662v-9.138a7.773,7.773,0,0,0,3.277.9q4.484,0,5.813-5.763a8.446,8.446,0,0,1-4.729,1.631,6.807,6.807,0,0,1-5.642-2.911,11.875,11.875,0,0,1-2.217-7.408V623.57h9.213v15.069q0,2.5,1.823,2.5,1.749,0,1.749-2.756V623.57h9.214v25.022q0,7-3.449,11.3-4.115,5.117-9.952,5.116A12.5,12.5,0,0,1,521.424,663.886Z" fill="#fff"/>
      <path id="Path_2" data-name="Path 2" d="M359.677,289.664H255.454a92.275,92.275,0,0,1,21,19.494A84.282,84.282,0,0,1,295.013,360.8h64.664a35.57,35.57,0,0,0,0-71.14ZM189.224,353.9c-.508-11.091-2.54-21.716-7.831-31.559-2.985-5.588-5.758-11.176-10.224-15.557-2.286-2.2-4.275-4.741-6.709-6.816A99.845,99.845,0,0,0,149.3,289.58H97.129a35.57,35.57,0,1,0,0,71.14H189.14V360.3c0-1.524.1-3.048.169-4.55C189.288,355.132,189.267,354.539,189.224,353.9ZM434.415,303.3l-15.346-8.445a4.368,4.368,0,0,0-5.8,1.482,3.93,3.93,0,0,0,1.566,5.5l15.346,8.445a4.363,4.363,0,0,0,5.778-1.481A3.92,3.92,0,0,0,434.415,303.3Zm45.042-23.2a4.338,4.338,0,0,0-5.779,1.461l-8.868,14.626a3.925,3.925,0,0,0,1.566,5.5,4.335,4.335,0,0,0,5.778-1.461l8.869-14.626A3.925,3.925,0,0,0,479.457,280.1Zm17.525,17a4.336,4.336,0,0,0-5.778-1.461l-15.345,8.424a3.931,3.931,0,0,0-1.567,5.5,4.349,4.349,0,0,0,5.8,1.481l15.345-8.424A3.962,3.962,0,0,0,496.982,297.094Zm-51.2-1.355-8.847-14.626a4.363,4.363,0,0,0-5.8-1.46,3.935,3.935,0,0,0-1.545,5.5l8.869,14.6a4.337,4.337,0,0,0,5.778,1.481A3.918,3.918,0,0,0,445.781,295.739ZM455.37,273.7a4.123,4.123,0,0,0-4.234,4.021v16.891a4.239,4.239,0,0,0,8.467,0V277.726A4.137,4.137,0,0,0,455.37,273.7Zm-.953,67.1a4.137,4.137,0,0,0-4.233,4.022v16.89a4.25,4.25,0,0,0,8.487,0v-16.89A4.142,4.142,0,0,0,454.417,340.8ZM435.494,329.88a4.343,4.343,0,0,0-5.778-1.481l-15.367,8.445a3.935,3.935,0,0,0-1.545,5.5,4.385,4.385,0,0,0,5.8,1.482l15.345-8.445A3.941,3.941,0,0,0,435.494,329.88Zm-6.963-14.647H410.793a4.036,4.036,0,1,0,0,8.065h17.738a4.037,4.037,0,1,0,0-8.065ZM480.2,354.285,471.35,339.68a4.368,4.368,0,0,0-5.8-1.481,3.94,3.94,0,0,0-1.546,5.5l8.869,14.626a4.36,4.36,0,0,0,5.779,1.482A3.948,3.948,0,0,0,480.2,354.285Zm-36.766-16.531a4.364,4.364,0,0,0-5.8,1.482l-8.847,14.605a3.9,3.9,0,0,0,1.545,5.5,4.335,4.335,0,0,0,5.778-1.461l8.869-14.626A3.94,3.94,0,0,0,443.432,337.754Zm51.54-.148-15.367-8.424a4.336,4.336,0,0,0-5.778,1.46,3.963,3.963,0,0,0,1.545,5.525l15.345,8.424a4.357,4.357,0,0,0,5.8-1.461A3.959,3.959,0,0,0,494.972,337.606Zm4.021-21.463H481.256a4.037,4.037,0,1,0,0,8.065h17.737a4.037,4.037,0,1,0,0-8.065ZM276.07,569.293c-.781,23.216-23.18,42.741-46.464,34.311C213.9,597.917,205.4,581.26,205.4,565.229c-.063-21.145-.042-186.539-.042-207.663,0-1.524.106-3.048.169-4.551-.021-.635-.042-1.227-.084-1.841-.53-11.091-2.562-21.717-7.832-31.58-3.006-5.588-5.757-11.176-10.244-15.558-2.265-2.2-4.255-4.72-6.689-6.794a97.731,97.731,0,0,0-15.515-10.6,13.447,13.447,0,0,1,1.185-.784c.678-.338,1.355-.656,2.054-.931a79.736,79.736,0,0,1,18.2-4.889,75.1,75.1,0,0,1,11.345-.826,83.752,83.752,0,0,1,11.43.8c.042,0,.084.022.127.022,20.3,2.836,37.845,11.789,51.412,28.849a69.015,69.015,0,0,1,15.261,42.291c.043.656.064,1.333.064,2.01C276.26,377.145,276.874,545.372,276.07,569.293Zm264.473-8.044c0,23.96-27.35,47.322-50.461,33.613a11.4,11.4,0,0,1-5.08-3.218c-8.932-6.6-14.139-15.621-14.964-27.474a7.353,7.353,0,0,1-.4-3.577q-.031-31.245-.025-62.491c0-24.211-4.046-51.738,6.388-74.236a18.855,18.855,0,0,1,2.971-4.706l.148-.064c6.329-9.567,15.134-14.181,25.738-14.477,9.25-.276,17.336,2.688,24,10.435,7.9,9.165,10.71,20.256,11.409,32.172l.19,111.378C540.522,559.492,540.543,560.359,540.543,561.249ZM407.893,379.388a97.848,97.848,0,0,0-15.515,10.605c-2.434,2.074-4.423,4.593-6.709,6.815-4.466,4.361-7.239,9.97-10.224,15.536-5.566,10.393-7.514,21.653-7.9,33.422.043,1.5.149,3.027.149,4.551,0,21.123.021,86.694-.022,107.841-.049,24.618-23.514,49.081-48.83,37.635-.254-.106-.424-.381-.635-.572-13.081-6.413-20.7-17.779-21.209-33.019-.825-23.918-.19-92.328-.19-116.267a69.646,69.646,0,0,1,15.324-44.3c13.61-17.081,31.2-26.034,51.54-28.871a79.684,79.684,0,0,1,40.978,4.911c.7.275,1.376.614,2.053.952A9.861,9.861,0,0,1,407.893,379.388Zm104.562,12.806c-1.333,0-2.582.064-3.81-.021-10.371-.614-20.4,1.439-29.252,7.133-22.255,14.413-24.953,38.876-25.061,63-.107,24.063,0,48.13-.008,72.193q0,12.931-.013,25.861a23.965,23.965,0,0,1-.381,2.984c-2.917,22.835-31.071,48.331-53.233,29.486a23.279,23.279,0,0,1-9-8.573,34.652,34.652,0,0,1-7.133-14.5,49.206,49.206,0,0,1-1.058-6.477c-.085-1.312-.212-2.624-.212-3.936-.021-22.987-.021-90.423,0-113.431,0-1.609.191-3.217.3-4.826a52.145,52.145,0,0,1,2.645-14.668,62.257,62.257,0,0,1,13.4-25.929c18.986-22.013,42.713-30.31,69.891-28,15.409,1.312,29.4,6.773,41.38,17.716A3.842,3.842,0,0,1,512.455,392.194Z" stroke="#fff" stroke-width="3" fill="url(#linear-gradient)"/>
    </g>
  </g>
</svg>
